<svg width="100" height="100" viewBox="0 0 100 100" fill="none" xmlns="http://www.w3.org/2000/svg">
<path d="M12.5 12.5L87.5 87.5M75 25L73.3333 50M71.8742 71.8863L71.6629 75.0537C71.3708 79.4375 71.2246 81.6296 70.2779 83.2917C69.4442 84.755 68.1867 85.9313 66.6713 86.6658C64.95 87.5 62.7529 87.5 58.3592 87.5H41.6407C37.247 87.5 35.0501 87.5 33.3287 86.6658C31.8132 85.9313 30.5558 84.755 29.7222 83.2917C28.7753 81.6296 28.6292 79.4375 28.3369 75.0537L25 25H16.6667M66.6667 25L64.3996 18.1981C63.2654 14.7952 60.0808 12.5 56.4937 12.5H43.5067C41.4268 12.5 39.4823 13.2716 37.9944 14.5833M48.3887 25H83.3333M58.3333 58.3333V70.8333M41.6667 41.6667V70.8333" stroke="white" stroke-width="3" stroke-linecap="round" stroke-linejoin="round"/>
</svg>
