<svg width="50" height="50" viewBox="0 0 50 50" fill="none" xmlns="http://www.w3.org/2000/svg">
<path d="M25 10C16.7163 10 10 16.8214 10 25.2349C10 32.3737 14.84 38.347 21.365 40C21.295 39.7943 21.25 39.5557 21.25 39.2598V36.6559C20.6412 36.6559 19.6212 36.6559 19.365 36.6559C18.3387 36.6559 17.4262 36.2078 16.9837 35.3749C16.4925 34.4494 16.4075 33.0339 15.19 32.168C14.8288 31.8798 15.1037 31.551 15.52 31.5954C16.2887 31.8163 16.9262 32.3521 17.5262 33.1468C18.1237 33.9429 18.405 34.1231 19.5212 34.1231C20.0625 34.1231 20.8725 34.0914 21.635 33.9695C22.045 32.912 22.7537 31.9382 23.62 31.4786C18.625 30.9568 16.2413 28.4329 16.2413 25.0063C16.2413 23.5311 16.86 22.1041 17.9113 20.9018C17.5663 19.7084 17.1325 17.2747 18.0438 16.3479C20.2913 16.3479 21.65 17.8282 21.9763 18.2281C23.0963 17.8383 24.3263 17.6174 25.6187 17.6174C26.9137 17.6174 28.1488 17.8383 29.2712 18.2306C29.5938 17.8333 30.9538 16.3479 33.2063 16.3479C34.1213 17.2759 33.6825 19.7198 33.3337 20.9107C34.3787 22.1105 34.9938 23.5336 34.9938 25.0063C34.9938 28.4304 32.6138 30.953 27.6262 31.4774C28.9988 32.2048 30 34.2488 30 35.7888V39.2598C30 39.3919 29.9713 39.4871 29.9562 39.6001C35.8013 37.5193 40 31.8824 40 25.2349C40 16.8214 33.2838 10 25 10Z" fill="white"/>
</svg>
