<svg width="50" height="50" viewBox="0 0 50 50" fill="none" xmlns="http://www.w3.org/2000/svg">
<path d="M29.8706 10.0097L10.6958 11.3734C10.6899 11.3738 10.6841 11.3743 10.6782 11.3749C10.6684 11.3761 10.6587 11.3776 10.6489 11.3792C10.6308 11.3814 10.6127 11.3843 10.5947 11.3878C10.5874 11.3896 10.58 11.3915 10.5728 11.3936C10.5644 11.3954 10.5561 11.3973 10.5479 11.3993C10.5296 11.4044 10.5115 11.4102 10.4937 11.4166C10.4818 11.4211 10.4701 11.4259 10.4585 11.431C10.4516 11.4338 10.4448 11.4366 10.438 11.4396C10.3986 11.4575 10.3609 11.4786 10.3252 11.5029C10.3188 11.5066 10.3124 11.5105 10.3062 11.5144C10.2905 11.5258 10.2754 11.5378 10.2607 11.5504C10.2578 11.5532 10.2549 11.5561 10.252 11.559C10.2394 11.5696 10.2272 11.5807 10.2153 11.5921C10.2078 11.6001 10.2005 11.6082 10.1934 11.6166C10.1822 11.6287 10.1714 11.6411 10.1611 11.654C10.1572 11.6587 10.1533 11.6635 10.1494 11.6683C10.1381 11.6833 10.1273 11.6986 10.1172 11.7144C10.1142 11.7191 10.1113 11.7239 10.1084 11.7288C10.0985 11.7442 10.0892 11.7601 10.0806 11.7762C10.077 11.7829 10.0736 11.7896 10.0703 11.7964C10.0623 11.8138 10.055 11.8316 10.0483 11.8496C10.0474 11.8515 10.0464 11.8534 10.0454 11.8554C10.0303 11.897 10.019 11.9398 10.0117 11.9834C10.0101 11.991 10.0087 11.9987 10.0073 12.0064C10.0046 12.026 10.0026 12.0457 10.0015 12.0654V12.0683C10.0006 12.0817 10.0001 12.0951 10 12.1085V31.0662C10 31.8216 10.2364 32.5604 10.6782 33.1795C10.6898 33.1958 10.702 33.2116 10.7148 33.227L15.3452 38.6993C15.3899 38.7783 15.449 38.8485 15.5195 38.9065L15.8125 39.2518C15.8497 39.2957 15.892 39.3353 15.9385 39.3697C16.3788 39.7893 16.9879 40.0369 17.645 39.9955L37.895 38.7123C39.0718 38.6376 40 37.6648 40 36.5069V17.3623C40 16.6821 39.6741 16.0791 39.1782 15.6734C39.1431 15.6339 39.1038 15.5982 39.061 15.5669L38.6978 15.3036C38.6523 15.2611 38.6016 15.2244 38.5469 15.1943L32.3682 10.7189C31.6488 10.1975 30.762 9.94614 29.8706 10.0097ZM29.979 11.4784C30.5141 11.4403 31.0464 11.5918 31.4775 11.9043L36.0757 15.236L17.3066 16.443C16.6604 16.4844 16.0283 16.2496 15.5693 15.8H15.5679L12.4404 12.7271L29.979 11.4784ZM11.5 13.8866L14.5088 16.8415L15.25 17.5694V36.2811L11.9043 32.3264C11.6424 31.9569 11.5 31.5177 11.5 31.0662V13.8866ZM37.7017 16.6271C38.1451 16.5992 38.5 16.9265 38.5 17.3623V36.5069C38.5 36.9017 38.1995 37.2166 37.7983 37.2421L17.5483 38.5253C17.3281 38.5392 17.1298 38.4651 16.9858 38.3339L16.9844 38.3325L16.9829 38.3311C16.9798 38.3282 16.9786 38.3239 16.9756 38.321C16.9727 38.3171 16.9698 38.3133 16.9668 38.3095C16.8342 38.1778 16.75 37.998 16.75 37.7902V18.6455C16.75 18.2496 17.05 17.9359 17.4517 17.9104L37.7017 16.6271ZM35.1221 20.2107L31.3164 20.4178C30.7359 20.4767 30.0596 20.9015 30.0596 21.5917L31.7471 21.7298V29.6046L25.9111 20.7645L21.5371 21.0062C20.7189 21.0651 20.4956 21.6624 20.4956 22.4218H22.1831V33.8858C22.1831 33.8858 21.3939 34.095 21.1299 34.162C20.5689 34.3042 20.4956 34.7833 20.4956 35.1288C20.4956 35.1288 23.31 34.99 24.6045 34.8943C26.0737 34.7838 26.1221 33.8168 26.1221 33.8168L24.4346 33.4715V24.9767C24.4346 24.9767 28.7244 31.7454 30.0361 33.7348C30.6534 34.6695 31.1143 34.8526 31.9258 34.8526C32.5918 34.8526 33.2216 34.6594 33.9956 34.2484V21.4608C33.9956 21.4608 34.1382 21.4533 34.5874 21.3112C35.0997 21.1484 35.1221 20.6938 35.1221 20.2107Z" fill="white"/>
</svg>
