<svg width="150" height="150" viewBox="0 0 150 150" fill="none" xmlns="http://www.w3.org/2000/svg">
<path d="M125 112.5C125 126.307 102.614 137.5 75 137.5C47.3857 137.5 25 126.307 25 112.5V87.3375C28.1388 91.1913 32.5934 94.3931 37.5484 96.87C47.3752 101.784 60.6229 104.688 75 104.688C89.3769 104.688 102.625 101.784 112.452 96.87C117.407 94.3931 121.861 91.1913 125 87.3375V112.5Z" fill="white"/>
<path d="M75 67.1875C89.3769 67.1875 102.625 64.2837 112.452 59.3703C117.407 56.8928 121.861 53.6912 125 49.8373V75C125 78.125 113.839 84.9443 108.259 88.485C99.9894 92.62 88.2375 95.3125 75 95.3125C61.7628 95.3125 50.0105 92.62 41.741 88.485C34.375 84.8018 25 78.125 25 75V49.8373C28.1388 53.6912 32.5934 56.8928 37.5484 59.3703C47.3752 64.2837 60.6229 67.1875 75 67.1875Z" fill="white"/>
<path d="M108.259 50.9851C99.9894 55.1198 88.2375 57.8125 75 57.8125C61.7628 57.8125 50.0105 55.1198 41.741 50.9851C38.524 49.7248 31.2898 45.7183 26.2594 39.2459C25.4034 38.1446 25.036 36.7408 25.2493 35.3624C25.3927 34.4356 25.5925 33.4809 25.8486 32.8891C30.176 21.2846 50.5363 12.5 75 12.5C99.4638 12.5 119.824 21.2846 124.151 32.8891C124.408 33.4809 124.608 34.4356 124.751 35.3624C124.964 36.7408 124.597 38.1446 123.741 39.2459C118.71 45.7183 111.476 49.7248 108.259 50.9851Z" fill="white"/>
</svg>
