<svg width="150" height="150" viewBox="0 0 150 150" fill="none" xmlns="http://www.w3.org/2000/svg">
<path d="M87.0391 118.934C86.4391 118.133 85.7538 117.556 84.9883 117.202C84.2228 116.847 83.4159 116.672 82.565 116.672C81.6935 116.672 80.8633 116.834 80.0719 117.165C79.2805 117.497 78.5745 118.055 77.9512 118.844C77.3279 119.633 76.8366 120.652 76.4848 121.903C76.1305 123.153 75.9417 124.684 75.9185 126.499C75.9417 128.268 76.1254 129.776 76.4667 131.025C76.8081 132.274 77.2788 133.293 77.8814 134.084C78.484 134.876 79.1667 135.45 79.9323 135.817C80.6978 136.184 81.5047 136.365 82.3555 136.365C83.2271 136.365 84.0572 136.195 84.8486 135.853C85.64 135.512 86.346 134.951 86.9693 134.175C87.5926 133.399 88.084 132.378 88.4357 131.115C88.7874 129.853 88.9788 128.317 89.0021 126.502C88.9788 124.733 88.7952 123.23 88.4538 121.994C88.1124 120.758 87.6417 119.736 87.0391 118.934Z" fill="white"/>
<path d="M133.19 100.862V36.15C133.19 34.169 132.952 32.7026 131.767 31.5155L101.672 1.42241C100.769 0.519828 99.5174 0 98.2373 0H23.1804C20.1131 0 16.8105 2.36897 16.8105 7.56724V100.862H133.19ZM76.2933 85.3448C76.2933 86.7724 75.1373 87.931 73.7071 87.931C72.2769 87.931 71.1209 86.7724 71.1209 85.3448V77.5862C71.1209 76.1586 72.2769 75 73.7071 75C75.1373 75 76.2933 76.1586 76.2933 77.5862V85.3448ZM96.983 8.76983C96.983 7.58534 98.4131 6.9931 99.2511 7.83103L125.359 33.9388C126.197 34.7767 125.605 36.2069 124.42 36.2069H96.983V8.76983ZM94.3967 62.069V51.7241C94.3967 50.2991 93.2381 49.1379 91.8105 49.1379C90.3804 49.1379 89.2243 47.9793 89.2243 46.5517C89.2243 45.1241 90.3804 43.9655 91.8105 43.9655C96.0881 43.9655 99.5692 47.4466 99.5692 51.7241V62.069C99.5692 64.9216 101.889 67.2414 104.742 67.2414C106.172 67.2414 107.328 68.4 107.328 69.8276C107.328 71.2552 106.172 72.4138 104.742 72.4138C101.889 72.4138 99.5692 74.7336 99.5692 77.5862V87.931C99.5692 92.2086 96.0881 95.6897 91.8105 95.6897C90.3804 95.6897 89.2243 94.531 89.2243 93.1034C89.2243 91.6759 90.3804 90.5172 91.8105 90.5172C93.2381 90.5172 94.3967 89.356 94.3967 87.931V77.5862C94.3967 74.4828 95.7985 71.7259 97.9709 69.8276C95.7985 67.9293 94.3967 65.1724 94.3967 62.069ZM73.7071 56.8966C75.8485 56.8966 77.5864 58.6345 77.5864 60.7759C77.5864 62.9172 75.8485 64.6552 73.7071 64.6552C71.5657 64.6552 69.8278 62.9172 69.8278 60.7759C69.8278 58.6345 71.5657 56.8966 73.7071 56.8966ZM42.6726 67.2414C45.5252 67.2414 47.845 64.9216 47.845 62.069V51.7241C47.845 47.4466 51.3261 43.9655 55.6036 43.9655C57.0338 43.9655 58.1899 45.1241 58.1899 46.5517C58.1899 47.9793 57.0338 49.1379 55.6036 49.1379C54.1761 49.1379 53.0174 50.2991 53.0174 51.7241V62.069C53.0174 65.1724 51.6157 67.9293 49.4433 69.8276C51.6157 71.7259 53.0174 74.4828 53.0174 77.5862V87.931C53.0174 89.356 54.1761 90.5172 55.6036 90.5172C57.0338 90.5172 58.1899 91.6759 58.1899 93.1034C58.1899 94.531 57.0338 95.6897 55.6036 95.6897C51.3261 95.6897 47.845 92.2086 47.845 87.931V77.5862C47.845 74.7336 45.5252 72.4138 42.6726 72.4138C41.2424 72.4138 40.0864 71.2552 40.0864 69.8276C40.0864 68.4 41.2424 67.2414 42.6726 67.2414Z" fill="white"/>
<path d="M16.8105 106.034V144.828C16.8105 147.437 19.9657 150 23.1804 150H126.82C130.035 150 133.19 147.437 133.19 144.828V106.034H16.8105ZM46.6062 133.36C46.6062 134.586 46.3812 135.618 45.9338 136.453C45.4864 137.289 44.8864 137.961 44.1312 138.468C43.3761 138.975 42.5097 139.329 41.5321 139.528C40.5545 139.728 39.5459 139.828 38.5088 139.828C37.9916 139.828 37.3812 139.774 36.6881 139.668C35.995 139.562 35.2735 139.399 34.5312 139.174C33.789 138.949 33.0752 138.696 32.3924 138.414C31.7097 138.132 31.133 137.814 30.6597 137.459L32.4623 134.596C32.6976 134.759 33.0338 134.933 33.4709 135.109C33.908 135.284 34.3864 135.45 34.9037 135.603C35.4209 135.755 35.964 135.89 36.5304 136.009C37.0968 136.128 37.6269 136.184 38.1209 136.184C39.37 136.184 40.3657 135.941 41.108 135.46C41.8502 134.979 42.2433 134.157 42.2924 133.003V113.061H46.6062V133.36ZM67.133 135.253C66.745 136.138 66.1968 136.916 65.4881 137.586C64.7795 138.256 63.9105 138.794 62.8709 139.195C61.8312 139.596 60.6571 139.795 59.3355 139.795C58.7692 139.795 58.1873 139.764 57.5847 139.707C56.9821 139.65 56.3769 139.546 55.764 139.407C55.1511 139.265 54.5666 139.071 54.0131 138.822C53.4597 138.574 52.9838 138.274 52.5804 137.92L53.3226 134.878C53.6536 135.067 54.07 135.251 54.5769 135.427C55.0838 135.603 55.6062 135.768 56.1493 135.921C56.6924 136.073 57.233 136.197 57.7761 136.293C58.3192 136.389 58.8235 136.435 59.2967 136.435C60.7347 136.435 61.8364 136.099 62.6019 135.427C63.3674 134.754 63.7502 133.759 63.7502 132.44C63.7502 131.638 63.4812 130.955 62.9381 130.389C62.395 129.822 61.7174 129.31 60.9054 128.85C60.0933 128.39 59.214 127.932 58.27 127.471C57.3261 127.011 56.4442 126.468 55.6192 125.845C54.7942 125.221 54.1114 124.484 53.5683 123.636C53.0252 122.788 52.7562 121.728 52.7562 120.455C52.7562 119.302 52.9683 118.275 53.3924 117.38C53.8166 116.485 54.3881 115.722 55.1071 115.099C55.8261 114.476 56.664 113.997 57.6183 113.666C58.5726 113.335 59.5812 113.172 60.6416 113.172C61.7252 113.172 62.8218 113.273 63.9286 113.472C65.0355 113.671 65.9304 113.997 66.6157 114.445C66.4735 114.75 66.3105 115.086 66.1217 115.453C65.933 115.821 65.7545 116.159 65.5916 116.478C65.4286 116.796 65.2864 117.062 65.1674 117.274C65.0485 117.486 64.9786 117.605 64.9554 117.628C64.8131 117.559 64.6554 117.465 64.4769 117.346C64.2985 117.228 64.0476 117.111 63.7166 116.992C63.3855 116.873 62.9511 116.793 62.408 116.744C61.8649 116.695 61.1692 116.708 60.3209 116.78C59.8476 116.829 59.4028 116.961 58.9761 117.186C58.5493 117.411 58.1743 117.685 57.8433 118.016C57.5123 118.347 57.2536 118.717 57.0649 119.131C56.8761 119.545 56.783 119.94 56.783 120.315C56.783 121.257 57.0519 122.017 57.595 122.596C58.1381 123.176 58.8105 123.68 59.6097 124.117C60.4088 124.554 61.283 124.978 62.2269 125.39C63.1709 125.801 64.0476 126.305 64.8623 126.892C65.6769 127.479 66.3519 128.219 66.895 129.101C67.4381 129.983 67.7071 131.121 67.7071 132.512C67.7174 133.456 67.5209 134.369 67.133 135.253ZM92.4855 132.3C91.9321 133.973 91.164 135.365 90.1864 136.471C89.2088 137.578 88.0657 138.416 86.7571 138.983C85.4485 139.549 84.0157 139.831 82.4614 139.831C80.9071 139.831 79.4743 139.549 78.1657 138.983C76.8571 138.416 75.714 137.581 74.7364 136.471C73.7588 135.362 72.9907 133.973 72.4373 132.3C71.8838 130.627 71.6071 128.692 71.6071 126.502C71.6071 124.311 71.8838 122.382 72.4373 120.721C72.9907 119.061 73.7588 117.675 74.7364 116.568C75.714 115.461 76.8571 114.618 78.1657 114.039C79.4743 113.459 80.9071 113.172 82.4614 113.172C84.0157 113.172 85.4485 113.459 86.7571 114.039C88.0657 114.618 89.2088 115.459 90.1864 116.568C91.164 117.678 91.9321 119.061 92.4855 120.721C93.039 122.382 93.3157 124.311 93.3157 126.502C93.3157 128.692 93.039 130.627 92.4855 132.3ZM118.138 139.655H113.824L103.606 121.694V139.655H99.2924V113.596H103.606L113.824 131.558V113.596H118.138V139.655Z" fill="white"/>
</svg>
