<svg width="150" height="150" viewBox="0 0 150 150" fill="none" xmlns="http://www.w3.org/2000/svg">
<g clip-path="url(#clip0_1259_107)">
<path fill-rule="evenodd" clip-rule="evenodd" d="M119.363 66.4893C95.19 52.1343 55.3125 50.8124 32.2275 57.8174C28.5225 58.9349 24.6075 56.8497 23.4825 53.1372C22.3575 49.4322 24.45 45.5171 28.155 44.3921C54.6525 36.3446 98.6925 37.8964 126.525 54.4189C129.855 56.3989 130.95 60.7056 128.97 64.0356C127.005 67.3656 122.685 68.4693 119.363 66.4893ZM118.575 87.7515C116.88 90.504 113.28 91.3652 110.527 89.6777C90.375 77.2877 59.64 73.7024 35.7975 80.9399C32.7 81.8699 29.4375 80.1298 28.5 77.0398C27.57 73.9498 29.31 70.686 32.4 69.7485C59.6325 61.4835 93.495 65.4893 116.648 79.7168C119.4 81.4043 120.262 85.0065 118.575 87.7515ZM109.395 108.171C108.045 110.376 105.172 111.074 102.967 109.724C85.3575 98.9616 63.1875 96.5326 37.08 102.495C34.5675 103.073 32.055 101.496 31.485 98.9758C30.9075 96.4633 32.475 93.9613 35.0025 93.3838C63.57 86.8513 88.0725 89.6619 107.842 101.744C110.047 103.094 110.745 105.966 109.395 108.171ZM75 0C33.5775 0 0 33.5775 0 75C0 116.423 33.5775 150 75 150C116.423 150 150 116.423 150 75C150 33.585 116.423 0 75 0Z" fill="white"/>
</g>
<defs>
<clipPath id="clip0_1259_107">
<rect width="150" height="150" fill="white"/>
</clipPath>
</defs>
</svg>
