<svg width="100" height="100" viewBox="0 0 100 100" fill="none" xmlns="http://www.w3.org/2000/svg">
<g clip-path="url(#clip0_1336_20)">
<path d="M73.9081 0H40.6825H38.1093L36.2901 1.81914L11.136 26.973L9.31689 28.7922V31.3656V83.2236C9.31689 92.4738 16.8419 100 26.0935 100H73.9081C83.1581 100 90.6831 92.4738 90.6831 83.2236V16.7764C90.6833 7.525 83.1581 0 73.9081 0ZM84.4714 83.2234C84.4714 89.0588 79.7421 93.7883 73.9081 93.7883H26.0935C20.2579 93.7883 15.5286 89.0588 15.5286 83.2234V31.3654H31.8796C36.7399 31.3654 40.6823 27.4242 40.6823 22.5627V6.21172H73.9081C79.7421 6.21172 84.4714 10.941 84.4714 16.7764V83.2234Z" fill="white"/>
<path d="M56.3654 43.6254C51.9454 41.4913 48.2111 36.6731 48.2111 36.6731V39.8819V63.3516C46.8318 62.8442 45.1999 62.6944 43.5179 63.0188C39.48 63.7946 36.6999 66.9803 37.3068 70.1305C37.9136 73.2821 41.6783 75.2063 45.7154 74.4276C49.3005 73.7376 51.8882 71.1491 51.9994 68.37H52.0212V48.1692C63.6183 49.586 61.7132 57.7944 60.9113 60.2012C67.5949 52.7145 64.1187 47.3674 56.3654 43.6254Z" fill="white"/>
</g>
<defs>
<clipPath id="clip0_1336_20">
<rect width="100" height="100" fill="white"/>
</clipPath>
</defs>
</svg>
