<svg width="50" height="50" viewBox="0 0 50 50" fill="none" xmlns="http://www.w3.org/2000/svg">
<path d="M50 25C50 38.8071 38.8071 50 25 50C11.1929 50 0 38.8071 0 25C0 11.1929 11.1929 0 25 0C38.8071 0 50 11.1929 50 25Z" fill="white" fill-opacity="0.1"/>
<path d="M31.894 26.0607C32.4798 25.4749 32.4798 24.5251 31.894 23.9393L22.3481 14.3934C21.7623 13.8076 20.8125 13.8076 20.2267 14.3934C19.6409 14.9792 19.6409 15.9289 20.2267 16.5147L28.712 25L20.2267 33.4853C19.6409 34.0711 19.6409 35.0208 20.2267 35.6066C20.8125 36.1924 21.7623 36.1924 22.3481 35.6066L31.894 26.0607ZM30 26.5H30.8333V23.5H30V26.5Z" fill="white" fill-opacity="0.4"/>
</svg>
