<svg width="50" height="50" viewBox="0 0 50 50" fill="none" xmlns="http://www.w3.org/2000/svg">
<path d="M18.7476 10C13.9238 10 10 13.9274 10 18.7524V31.2524C10 36.0762 13.9274 40 18.7524 40H31.2524C36.0762 40 40 36.0726 40 31.2476V18.7476C40 13.9238 36.0726 10 31.2476 10H18.7476ZM33.75 15C34.44 15 35 15.56 35 16.25C35 16.94 34.44 17.5 33.75 17.5C33.06 17.5 32.5 16.94 32.5 16.25C32.5 15.56 33.06 15 33.75 15ZM25 17.5C29.1362 17.5 32.5 20.8638 32.5 25C32.5 29.1362 29.1362 32.5 25 32.5C20.8638 32.5 17.5 29.1362 17.5 25C17.5 20.8638 20.8638 17.5 25 17.5ZM25 20C23.6739 20 22.4021 20.5268 21.4645 21.4645C20.5268 22.4021 20 23.6739 20 25C20 26.3261 20.5268 27.5979 21.4645 28.5355C22.4021 29.4732 23.6739 30 25 30C26.3261 30 27.5979 29.4732 28.5355 28.5355C29.4732 27.5979 30 26.3261 30 25C30 23.6739 29.4732 22.4021 28.5355 21.4645C27.5979 20.5268 26.3261 20 25 20Z" fill="white"/>
</svg>
