<svg width="100" height="100" viewBox="0 0 100 100" fill="none" xmlns="http://www.w3.org/2000/svg">
<path d="M84.3262 69.9185V30.0433C84.3262 21.8767 75.4512 16.7517 68.3678 20.835L51.0763 30.7933L33.7846 40.7933C26.7013 44.8767 26.7013 55.085 33.7846 59.1685L51.0763 69.1685L68.3678 79.1268C75.4512 83.2101 84.3262 78.1268 84.3262 69.9185Z" fill="white"/>
<path d="M15.6738 21.1238C17.3822 21.1238 18.7988 22.5405 18.7988 24.2488L18.7988 75.7488C18.7988 77.4571 17.3822 78.8738 15.6738 78.8738C13.9655 78.8738 12.5488 77.4571 12.5488 75.7488L12.5488 24.2488C12.5488 22.5405 13.9238 21.1238 15.6738 21.1238Z" fill="white"/>
</svg>
